# xmcd CD database file
#
# Track frame offsets:
#	150
#	16792
#	31252
#	46445
#	69367
#	84937
#	100930
#	116102
#	128517
#	140860
#
# Disc length: 2102 seconds
#
# Revision: 2
# Processed by: cddbd v1.5.2PL0 Copyright (c) Steve Scherf et al.
# Submitted via: CDex 1.51
#
DISCID=7d08340a
DTITLE=Southside Johnny and The Asbury Jukes - I Don't Want To Go Home
DYEAR=1976
DGENRE=Rock
TTITLE0=I Don't Want To Go Home
TTITLE1=Got To Get You Off My Mind
TTITLE2=How Come You Treat Me So Bad
TTITLE3=The Fever
TTITLE4=Broke Down Piece of Man
TTITLE5=Sweeter Than Honey
TTITLE6=Fannie Mae
TTITLE7=It Ain't The Meat (It's The Motion)
TTITLE8=I Choose To Sing The Blues
TTITLE9=You Mean So Much To Me
EXTD=YEAR: 1976
EXTT0=
EXTT1=
EXTT2=
EXTT3=
EXTT4=
EXTT5=
EXTT6=
EXTT7=
EXTT8=
EXTT9=
PLAYORDER=
